<svg width="81" height="54" viewBox="0 0 81 54" fill="none" xmlns="http://www.w3.org/2000/svg">
<path d="M45.7661 0.158961C36.4483 0.836034 26.766 3.24515 18.1772 7.03991C15.1505 8.36256 8.65341 11.6849 6.38735 13.0548C3.82021 14.5979 -0.0780438 17.1488 0.00118906 17.2275C0.143808 17.3692 5.15132 18.7548 5.51579 18.7548C5.73765 18.7548 7.44907 18.4557 9.31897 18.1093C14.1997 17.2117 24.4049 15.5899 25.2765 15.5742C25.3715 15.5742 24.8803 16.1568 24.183 16.8653C21.917 19.1957 20.2214 21.6836 18.6209 25.0217C15.721 31.1311 5.83272 53.2856 5.83272 53.7107C5.83272 53.8997 39.5067 53.8682 42.2006 53.6792C47.3349 53.3171 50.8211 52.7187 54.7194 51.5693C57.8095 50.6403 59.2673 50.0734 61.2798 49.0184C63.6885 47.7588 65.0355 46.7668 66.7152 45.0505C70.0588 41.6336 71.9763 37.8389 72.1823 34.296C72.3091 32.2963 72.0397 30.9264 71.2473 29.2731C70.7244 28.2024 70.3441 27.6985 69.2665 26.6435C68.189 25.5728 67.9988 25.3051 68.2206 25.2264C71.9763 23.9352 75.1139 22.0457 77.4592 19.6839C79.0597 18.062 79.7886 17.0071 80.4383 15.2908C81.0247 13.7949 81.0247 11.4488 80.47 9.7482C78.2674 3.02471 69.1397 -0.0772272 51.867 0.00150221C49.5217 0.0172481 46.7644 0.0959775 45.7661 0.158961ZM59.4733 1.56034C67.9513 2.1272 73.6402 3.78051 76.6352 6.53604C77.998 7.76422 78.6477 8.75621 79.1389 10.2993C80.0739 13.228 79.2023 15.9836 76.4926 18.7234C74.2899 20.9435 70.7561 22.959 66.7945 24.2502C65.7327 24.5966 64.7502 24.9115 64.6235 24.9587C64.4809 25.006 64.8295 25.2736 65.5267 25.6358C67.6343 26.738 69.0764 28.0922 69.9321 29.777C70.6452 31.1941 70.8512 32.3278 70.7719 34.1543C70.5026 39.2087 66.2557 44.8615 60.8361 47.3336C57.2548 48.9712 53.4516 49.79 48.0638 50.0577C45.0054 50.2151 13.5975 50.2781 13.5975 50.1206C13.5975 49.7112 23.2639 28.0922 25.6251 23.2109C28.0338 18.2825 30.9812 14.7869 34.8636 12.3148C35.6243 11.8267 36.2423 11.4015 36.2106 11.3858C36.1472 11.3385 31.6309 11.7794 28.8102 12.1101C20.5542 13.0863 15.7685 13.8736 8.38402 15.4325C6.76767 15.7789 5.38902 16.0308 5.29394 15.9993C4.96116 15.8891 11.379 12.1258 14.7543 10.4253C21.1722 7.22886 30.1414 4.26864 38.2548 2.6783C40.4099 2.25316 45.0054 1.63907 46.9546 1.51311C48.8878 1.38714 57.3182 1.41863 59.4733 1.56034Z" fill="#77D1FF"/>
<path d="M51.6767 12.236C50.409 15.0072 47.0337 22.5495 47.0337 22.6283C47.0337 22.77 50.8052 22.518 52.5008 22.2661C58.2372 21.4158 61.565 19.3059 62.2622 16.0622C62.4682 15.086 62.2464 14.2199 61.6601 13.6531C60.4082 12.4879 57.334 11.5904 52.9286 11.1023L52.2314 11.0393L51.6767 12.236ZM53.5149 15.4954C55.4324 16.4559 55.7493 18.0147 54.4023 19.857C54.0062 20.3923 53.6892 20.6443 53.2614 20.7545C52.6751 20.9119 49.8544 21.2426 49.7593 21.1639C49.7276 21.1324 50.1872 20.0617 50.7735 18.7863C51.344 17.4951 51.962 16.1409 52.1204 15.763C52.2789 15.4009 52.4849 15.1017 52.58 15.1017C52.6751 15.1017 53.0871 15.2749 53.5149 15.4954Z" fill="#77D1FF"/>
<path d="M43.5001 30.328C42.4701 32.5639 37.8429 42.7987 37.8112 42.9719C37.7795 43.0822 38.9204 43.1294 41.5668 43.1294C45.8771 43.1294 46.7645 42.9877 48.8562 41.9012C50.536 41.0352 52.4851 39.0355 53.325 37.3034C54.7353 34.3904 54.7036 32.7686 53.1665 31.2412C51.6136 29.7139 49.712 29.1155 46.2257 29.1155H44.0706L43.5001 30.328ZM45.5602 33.6819C46.4634 34.2015 46.923 34.7368 47.1607 35.6029C47.5251 36.894 46.4951 39.5866 45.0689 41.1297L44.3875 41.8697H42.375C40.8062 41.8697 40.3625 41.8225 40.4259 41.665C40.4576 41.5706 41.345 39.6181 42.375 37.3349C43.6427 34.5321 44.3241 33.2095 44.4984 33.2095C44.6252 33.2095 45.1006 33.4299 45.5602 33.6819Z" fill="#77D1FF"/>
</svg>
